<svg xmlns="http://www.w3.org/2000/svg" xmlns:xlink="http://www.w3.org/1999/xlink" preserveAspectRatio="xMidYMid" width="12.281" height="6.907" viewBox="0 0 12.281 6.907">
  <defs>
    <style>
      .cls-1 {
        fill: #32bbe3;
        fill-rule: evenodd;
      }
    </style>
  </defs>
  <path d="M6.128,-0.007 C2.098,-0.007 -0.015,2.977 -0.015,3.450 C-0.015,3.923 2.098,6.906 6.128,6.906 C10.157,6.906 12.270,3.923 12.270,3.450 C12.270,2.977 10.157,-0.007 6.128,-0.007 ZM6.128,6.108 C4.620,6.108 3.397,4.918 3.397,3.450 C3.397,1.981 4.620,0.791 6.128,0.791 C7.635,0.791 8.858,1.981 8.858,3.450 C8.858,4.918 7.635,6.108 6.128,6.108 ZM6.128,3.450 C5.878,3.174 6.535,2.120 6.128,2.120 C5.374,2.120 4.763,2.715 4.763,3.450 C4.763,4.184 5.374,4.779 6.128,4.779 C6.881,4.779 7.493,4.184 7.493,3.450 C7.493,3.112 6.340,3.684 6.128,3.450 Z" class="cls-1"/>
</svg>
