<svg xmlns="http://www.w3.org/2000/svg" xmlns:xlink="http://www.w3.org/1999/xlink" preserveAspectRatio="xMidYMid" width="9.219" height="9.219" viewBox="0 0 9.219 9.219">
  <defs>
    <style>
      .cls-1 {
        fill: #32bbe3;
        fill-rule: evenodd;
      }
    </style>
  </defs>
  <path d="M8.844,6.405 C8.358,7.538 7.533,8.368 6.391,8.855 C5.820,9.099 5.222,9.223 4.597,9.223 C3.973,9.223 3.379,9.100 2.809,8.855 C1.677,8.369 0.847,7.540 0.361,6.405 C0.117,5.836 -0.002,5.235 -0.002,4.610 C-0.002,3.985 0.117,3.388 0.361,2.820 C0.847,1.684 1.676,0.861 2.809,0.374 C3.379,0.130 3.973,0.007 4.597,0.007 C5.222,0.007 5.820,0.131 6.391,0.374 C7.533,0.862 8.358,1.686 8.844,2.820 C9.089,3.391 9.212,3.985 9.212,4.610 C9.212,5.235 9.089,5.834 8.844,6.405 ZM8.108,2.583 C7.746,1.963 7.251,1.470 6.627,1.106 C6.007,0.744 5.328,0.561 4.597,0.561 C3.867,0.561 3.192,0.743 2.572,1.106 C1.953,1.469 1.457,1.961 1.096,2.583 C0.737,3.202 0.557,3.879 0.557,4.610 C0.557,5.160 0.661,5.690 0.875,6.188 C1.089,6.688 1.376,7.123 1.736,7.484 C2.096,7.844 2.527,8.129 3.026,8.346 C3.524,8.563 4.048,8.668 4.597,8.668 C5.328,8.668 6.007,8.486 6.628,8.124 C7.251,7.760 7.747,7.268 8.109,6.647 C8.472,6.022 8.652,5.341 8.652,4.610 C8.652,3.879 8.471,3.203 8.108,2.583 ZM5.912,6.385 L4.406,4.877 C4.345,4.817 4.320,4.741 4.330,4.650 C4.330,4.635 4.320,4.615 4.320,4.610 L4.320,1.958 C4.320,1.801 4.451,1.675 4.597,1.675 C4.753,1.675 4.890,1.801 4.890,1.958 L4.890,4.569 L6.300,5.991 C6.408,6.100 6.416,6.269 6.300,6.385 C6.199,6.485 6.013,6.485 5.912,6.385 Z" class="cls-1"/>
</svg>
