<svg xmlns="http://www.w3.org/2000/svg" xmlns:xlink="http://www.w3.org/1999/xlink" preserveAspectRatio="xMidYMid" width="16.38" height="12.28" viewBox="0 0 16.38 12.28">
  <defs>
    <style>
      .cls-1 {
        fill: #8d8d8d;
        fill-rule: evenodd;
      }
    </style>
  </defs>
  <path d="M15.745,8.666 C15.312,9.273 14.718,9.786 13.962,10.205 C14.023,10.345 14.085,10.473 14.149,10.589 C14.214,10.705 14.290,10.817 14.378,10.924 C14.466,11.032 14.535,11.116 14.584,11.177 C14.632,11.238 14.712,11.324 14.821,11.434 C14.931,11.545 15.001,11.617 15.032,11.652 C15.038,11.658 15.050,11.671 15.068,11.691 C15.087,11.712 15.100,11.726 15.109,11.735 C15.118,11.744 15.130,11.758 15.146,11.778 C15.161,11.799 15.171,11.815 15.178,11.827 L15.200,11.870 C15.200,11.870 15.207,11.887 15.219,11.922 C15.231,11.957 15.232,11.976 15.223,11.979 C15.214,11.981 15.211,12.001 15.214,12.035 C15.196,12.117 15.156,12.181 15.095,12.227 C15.034,12.274 14.967,12.294 14.894,12.288 C14.589,12.247 14.327,12.201 14.108,12.149 C13.169,11.916 12.322,11.544 11.567,11.033 C11.018,11.126 10.482,11.172 9.958,11.172 C8.306,11.172 6.868,10.788 5.643,10.021 C5.996,10.044 6.264,10.056 6.447,10.056 C7.428,10.056 8.370,9.925 9.272,9.664 C10.174,9.402 10.978,9.027 11.685,8.539 C12.447,8.004 13.032,7.388 13.441,6.691 C13.849,5.993 14.053,5.255 14.053,4.476 C14.053,4.029 13.983,3.587 13.843,3.151 C14.629,3.564 15.251,4.081 15.708,4.703 C16.165,5.325 16.394,5.994 16.394,6.709 C16.394,7.406 16.177,8.059 15.745,8.666 ZM9.679,8.344 C8.689,8.742 7.611,8.940 6.448,8.940 C5.923,8.940 5.387,8.894 4.839,8.800 C4.083,9.312 3.236,9.684 2.297,9.917 C2.078,9.969 1.816,10.015 1.511,10.056 L1.483,10.056 C1.416,10.056 1.354,10.033 1.296,9.986 C1.238,9.940 1.203,9.879 1.191,9.803 C1.185,9.786 1.182,9.767 1.182,9.747 C1.182,9.727 1.183,9.708 1.186,9.690 C1.189,9.673 1.196,9.655 1.205,9.638 L1.228,9.594 C1.228,9.594 1.238,9.578 1.260,9.546 C1.281,9.515 1.293,9.500 1.296,9.503 C1.299,9.506 1.313,9.491 1.337,9.459 C1.362,9.427 1.374,9.414 1.374,9.420 C1.404,9.385 1.474,9.313 1.584,9.202 C1.694,9.092 1.773,9.006 1.822,8.945 C1.871,8.884 1.939,8.800 2.028,8.692 C2.116,8.585 2.192,8.473 2.256,8.357 C2.320,8.240 2.383,8.113 2.444,7.973 C1.688,7.555 1.094,7.040 0.661,6.430 C0.228,5.820 0.012,5.168 0.012,4.477 C0.012,3.669 0.298,2.922 0.871,2.236 C1.444,1.550 2.225,1.008 3.216,0.610 C4.206,0.212 5.283,0.013 6.447,0.013 C7.611,0.013 8.689,0.212 9.679,0.610 C10.669,1.008 11.451,1.550 12.024,2.236 C12.597,2.922 12.883,3.669 12.883,4.477 C12.883,5.285 12.597,6.032 12.024,6.717 C11.451,7.403 10.669,7.945 9.679,8.344 Z" class="cls-1"/>
</svg>
