<svg xmlns="http://www.w3.org/2000/svg" xmlns:xlink="http://www.w3.org/1999/xlink" preserveAspectRatio="xMidYMid" width="20" height="19" viewBox="0 0 20 19">
  <defs>
    <style>
      .cls-1 {
        fill: #5c688b;
        fill-rule: evenodd;
      }
    </style>
  </defs>
  <path d="M17.687,16.175 C17.592,16.204 17.550,16.229 17.536,16.238 C17.532,16.248 17.524,16.270 17.517,16.310 C17.438,16.727 17.181,17.083 16.813,17.287 C16.484,17.468 15.912,17.615 15.053,17.283 C14.637,17.122 14.134,17.169 13.027,17.919 C11.834,18.727 11.070,19.000 10.000,19.000 C8.930,19.000 8.166,18.727 6.972,17.919 C5.866,17.169 5.362,17.122 4.947,17.283 C4.087,17.615 3.515,17.468 3.187,17.287 C2.818,17.083 2.562,16.728 2.483,16.311 C2.476,16.270 2.468,16.248 2.464,16.238 C2.450,16.229 2.408,16.204 2.313,16.175 C1.193,15.871 0.046,15.433 0.001,14.497 C-0.027,13.912 0.371,13.460 1.184,13.156 C2.264,12.751 2.995,12.024 3.760,11.056 C4.043,10.698 4.048,10.395 4.015,10.225 L1.852,8.984 C1.459,8.759 1.324,8.259 1.551,7.867 C1.779,7.476 2.282,7.343 2.675,7.569 L5.085,8.951 C5.207,9.021 5.309,9.121 5.381,9.241 C5.686,9.751 5.960,10.920 5.054,12.066 C4.341,12.967 3.514,13.869 2.289,14.461 C2.422,14.505 2.577,14.552 2.757,14.601 C2.764,14.603 2.770,14.605 2.777,14.606 C3.471,14.813 3.893,15.218 4.062,15.841 C4.126,15.832 4.220,15.810 4.351,15.759 C5.672,15.249 6.886,15.881 7.900,16.568 C8.907,17.250 9.361,17.365 10.000,17.365 C10.639,17.365 11.093,17.250 12.100,16.568 C13.114,15.881 14.328,15.248 15.649,15.759 C15.780,15.810 15.874,15.832 15.938,15.841 C16.107,15.218 16.529,14.813 17.223,14.606 C17.229,14.605 17.236,14.603 17.243,14.601 C17.423,14.552 17.578,14.505 17.711,14.461 C16.486,13.869 15.658,12.967 14.946,12.066 C14.040,10.920 14.314,9.751 14.619,9.241 C14.691,9.121 14.793,9.021 14.915,8.951 L17.325,7.569 C17.718,7.343 18.221,7.476 18.449,7.867 C18.676,8.258 18.541,8.759 18.148,8.984 L15.989,10.223 C15.953,10.402 15.960,10.702 16.240,11.056 C17.005,12.024 17.736,12.751 18.816,13.156 C19.629,13.460 20.026,13.912 19.999,14.497 C19.954,15.433 18.807,15.870 17.687,16.175 ZM15.094,7.306 C14.640,7.306 14.271,6.940 14.271,6.488 L14.271,5.849 C14.271,3.525 12.368,1.635 10.029,1.635 C7.690,1.635 5.787,3.525 5.787,5.849 L5.787,6.488 C5.787,6.940 5.419,7.306 4.964,7.306 C4.510,7.306 4.141,6.940 4.141,6.488 L4.141,5.849 C4.141,2.624 6.783,-0.000 10.029,-0.000 C13.276,-0.000 15.917,2.624 15.917,5.849 L15.917,6.488 C15.917,6.940 15.549,7.306 15.094,7.306 Z" class="cls-1"/>
</svg>
