<svg xmlns="http://www.w3.org/2000/svg" xmlns:xlink="http://www.w3.org/1999/xlink" preserveAspectRatio="xMidYMid" width="18.562" height="15.562" viewBox="0 0 18.562 15.562">
  <defs>
    <style>
      .cls-1 {
        fill: #5c688b;
        fill-rule: evenodd;
      }
    </style>
  </defs>
  <path d="M18.556,1.841 C17.873,2.153 17.139,2.364 16.369,2.459 C17.155,1.973 17.759,1.203 18.043,0.287 C17.307,0.737 16.493,1.063 15.626,1.240 C14.931,0.476 13.942,-0.001 12.847,-0.001 C10.745,-0.001 9.040,1.758 9.040,3.927 C9.040,4.234 9.074,4.534 9.139,4.822 C5.975,4.658 3.170,3.094 1.293,0.718 C0.965,1.298 0.777,1.973 0.777,2.692 C0.777,4.055 1.449,5.257 2.471,5.961 C1.847,5.941 1.260,5.764 0.747,5.470 C0.746,5.486 0.746,5.503 0.746,5.520 C0.746,7.422 2.059,9.009 3.800,9.370 C3.481,9.460 3.144,9.508 2.797,9.508 C2.552,9.508 2.313,9.483 2.081,9.438 C2.565,10.998 3.971,12.134 5.637,12.165 C4.334,13.219 2.693,13.846 0.909,13.846 C0.602,13.846 0.299,13.828 0.001,13.791 C1.686,14.906 3.687,15.556 5.836,15.556 C12.838,15.556 16.667,9.571 16.667,4.382 C16.667,4.212 16.663,4.042 16.656,3.874 C17.400,3.320 18.045,2.628 18.556,1.841 Z" class="cls-1"/>
</svg>
