<svg xmlns="http://www.w3.org/2000/svg" xmlns:xlink="http://www.w3.org/1999/xlink" preserveAspectRatio="xMidYMid" width="19" height="19" viewBox="0 0 19 19">
  <defs>
    <style>
      .cls-1 {
        fill: #5c688b;
        fill-rule: evenodd;
      }
    </style>
  </defs>
  <path d="M19.000,9.255 C19.000,14.367 14.824,18.511 9.673,18.511 C8.037,18.511 6.501,18.092 5.164,17.359 L-0.000,19.000 L1.684,14.034 C0.834,12.639 0.345,11.004 0.345,9.255 C0.345,4.143 4.521,-0.000 9.673,-0.000 C14.825,-0.000 19.000,4.143 19.000,9.255 ZM9.673,1.474 C5.348,1.474 1.831,4.964 1.831,9.255 C1.831,10.958 2.386,12.534 3.325,13.817 L2.345,16.707 L5.358,15.749 C6.597,16.562 8.080,17.036 9.673,17.036 C13.997,17.036 17.515,13.546 17.515,9.255 C17.515,4.965 13.997,1.474 9.673,1.474 ZM14.383,11.387 C14.325,11.292 14.173,11.235 13.944,11.122 C13.716,11.008 12.591,10.459 12.382,10.384 C12.172,10.308 12.020,10.270 11.867,10.497 C11.715,10.725 11.277,11.235 11.143,11.387 C11.010,11.538 10.877,11.557 10.648,11.444 C10.419,11.330 9.683,11.091 8.809,10.318 C8.130,9.717 7.671,8.974 7.537,8.747 C7.404,8.520 7.524,8.397 7.638,8.284 C7.741,8.183 7.867,8.019 7.981,7.887 C8.095,7.754 8.133,7.660 8.209,7.509 C8.286,7.357 8.248,7.225 8.190,7.111 C8.133,6.998 7.675,5.881 7.485,5.427 C7.295,4.973 7.104,5.049 6.971,5.049 C6.838,5.049 6.685,5.030 6.533,5.030 C6.380,5.030 6.132,5.087 5.923,5.314 C5.713,5.541 5.123,6.089 5.123,7.206 C5.123,8.322 5.942,9.401 6.056,9.552 C6.171,9.703 7.638,12.068 9.962,12.977 C12.287,13.885 12.287,13.582 12.706,13.544 C13.125,13.506 14.058,12.995 14.249,12.466 C14.440,11.935 14.440,11.481 14.383,11.387 Z" class="cls-1"/>
</svg>
