<svg xmlns="http://www.w3.org/2000/svg" xmlns:xlink="http://www.w3.org/1999/xlink" preserveAspectRatio="xMidYMid" width="20.625" height="20.66" viewBox="0 0 20.625 20.66">
  <defs>
    <style>
      .cls-1 {
        fill: #32bbe3;
        fill-rule: evenodd;
      }
    </style>
  </defs>
  <path d="M19.878,0.007 L10.454,1.354 C9.905,1.431 9.681,2.105 10.073,2.496 L10.914,3.338 L3.302,10.951 C3.084,11.140 2.998,11.446 3.130,11.738 C3.237,11.971 4.375,13.052 4.557,13.234 L3.457,14.336 C2.716,15.077 1.730,15.485 0.682,15.485 C0.310,15.485 0.009,15.786 0.009,16.158 C0.009,16.530 0.310,16.831 0.682,16.831 C2.090,16.831 3.368,16.328 4.364,15.333 L5.510,14.186 C5.510,14.186 6.409,15.086 6.462,15.139 L2.110,19.491 C1.847,19.754 1.847,20.180 2.110,20.443 C2.373,20.706 2.799,20.706 3.062,20.443 L7.414,16.091 L8.707,17.384 C8.970,17.647 9.396,17.647 9.659,17.384 C10.484,16.560 16.470,10.572 17.309,9.733 L18.151,10.575 C18.541,10.965 19.214,10.746 19.294,10.194 L20.640,0.768 C20.704,0.320 20.316,-0.058 19.878,0.007 ZM11.661,13.469 L6.705,13.469 C5.983,12.747 5.497,12.256 5.359,12.118 L13.007,12.118 L11.661,13.469 ZM8.064,8.083 L9.411,6.732 L14.322,6.732 L15.668,8.083 L8.064,8.083 Z" class="cls-1"/>
</svg>
