<svg xmlns="http://www.w3.org/2000/svg" xmlns:xlink="http://www.w3.org/1999/xlink" preserveAspectRatio="xMidYMid" width="22.03" height="22" viewBox="0 0 22.03 22">
  <defs>
    <style>
      .cls-1 {
        fill: #0ab5bd;
        fill-rule: evenodd;
      }
    </style>
  </defs>
  <path d="M20.821,13.440 C20.354,13.803 20.156,14.435 20.328,15.013 C20.907,16.959 19.524,18.932 17.562,18.961 C16.979,18.970 16.461,19.360 16.272,19.933 C15.640,21.856 13.405,22.616 11.797,21.441 C11.320,21.092 10.679,21.092 10.202,21.441 C8.596,22.614 6.359,21.858 5.727,19.933 C5.538,19.360 5.020,18.970 4.437,18.961 C2.473,18.931 1.092,16.957 1.671,15.013 C1.843,14.435 1.645,13.803 1.178,13.440 C-0.394,12.219 -0.393,9.781 1.178,8.560 C1.645,8.197 1.843,7.565 1.671,6.987 C1.092,5.041 2.474,3.069 4.437,3.039 C5.020,3.030 5.538,2.640 5.727,2.067 C6.360,0.140 8.597,-0.613 10.202,0.559 C10.679,0.908 11.320,0.908 11.797,0.559 C13.402,-0.615 15.639,0.142 16.272,2.067 C16.460,2.640 16.979,3.030 17.562,3.039 C19.526,3.069 20.907,5.043 20.328,6.987 C20.156,7.565 20.354,8.197 20.821,8.560 C22.392,9.781 22.392,12.220 20.821,13.440 ZM10.999,3.791 C7.166,3.791 4.048,7.025 4.048,11.000 C4.048,14.975 7.166,18.209 10.999,18.209 C14.832,18.209 17.951,14.975 17.951,11.000 C17.951,7.025 14.832,3.791 10.999,3.791 ZM10.999,16.717 C7.960,16.717 5.486,14.153 5.486,11.000 C5.486,7.847 7.960,5.283 10.999,5.283 C14.039,5.283 16.512,7.847 16.512,11.000 C16.512,14.153 14.039,16.717 10.999,16.717 ZM14.123,9.487 L12.454,9.236 L11.709,7.669 C11.419,7.060 10.579,7.061 10.290,7.669 L9.544,9.236 L7.876,9.487 C7.230,9.585 6.968,10.412 7.438,10.887 L8.645,12.107 L8.360,13.829 C8.250,14.497 8.928,15.010 9.508,14.694 L10.999,13.881 L12.491,14.694 C13.065,15.008 13.750,14.503 13.638,13.829 L13.354,12.107 L14.561,10.887 C15.031,10.412 14.768,9.585 14.123,9.487 Z" class="cls-1"/>
</svg>
