<svg xmlns="http://www.w3.org/2000/svg" xmlns:xlink="http://www.w3.org/1999/xlink" preserveAspectRatio="xMidYMid" width="16.187" height="9.09" viewBox="0 0 16.187 9.09">
  <defs>
    <style>
      .cls-1 {
        fill: #fafafa;
        fill-rule: evenodd;
      }
    </style>
  </defs>
  <path d="M8.093,-0.014 C2.773,-0.014 -0.016,3.920 -0.016,4.543 C-0.016,5.167 2.773,9.100 8.093,9.100 C13.412,9.100 16.201,5.167 16.201,4.543 C16.201,3.920 13.412,-0.014 8.093,-0.014 ZM8.093,8.049 C6.103,8.049 4.489,6.480 4.489,4.543 C4.489,2.607 6.103,1.038 8.093,1.038 C10.083,1.038 11.697,2.607 11.697,4.543 C11.697,6.480 10.083,8.049 8.093,8.049 ZM8.093,4.543 C7.763,4.180 8.631,2.790 8.093,2.790 C7.098,2.790 6.291,3.575 6.291,4.543 C6.291,5.511 7.098,6.296 8.093,6.296 C9.088,6.296 9.895,5.511 9.895,4.543 C9.895,4.098 8.373,4.852 8.093,4.543 Z" class="cls-1"/>
</svg>
