<svg xmlns="http://www.w3.org/2000/svg" xmlns:xlink="http://www.w3.org/1999/xlink" preserveAspectRatio="xMidYMid" width="12.31" height="12.28" viewBox="0 0 12.31 12.28">
  <defs>
    <style>
      .cls-1 {
        fill: #8d8d8d;
        fill-rule: evenodd;
      }
    </style>
  </defs>
  <path d="M11.804,8.526 C11.156,10.036 10.056,11.141 8.533,11.790 C7.772,12.114 6.974,12.280 6.141,12.280 C5.308,12.280 4.517,12.116 3.757,11.790 C2.247,11.143 1.141,10.039 0.492,8.526 C0.167,7.769 0.008,6.968 0.008,6.136 C0.008,5.303 0.167,4.509 0.492,3.752 C1.141,2.239 2.246,1.142 3.757,0.494 C4.517,0.169 5.308,0.004 6.141,0.004 C6.974,0.004 7.772,0.170 8.533,0.494 C10.056,1.144 11.156,2.242 11.804,3.752 C12.131,4.512 12.295,5.303 12.295,6.136 C12.295,6.968 12.130,7.766 11.804,8.526 ZM10.823,3.436 C10.340,2.610 9.681,1.953 8.849,1.468 C8.021,0.986 7.115,0.743 6.141,0.743 C5.167,0.743 4.267,0.985 3.441,1.468 C2.615,1.952 1.954,2.608 1.473,3.436 C0.993,4.261 0.754,5.162 0.754,6.136 C0.754,6.868 0.892,7.574 1.177,8.238 C1.463,8.904 1.846,9.483 2.326,9.963 C2.806,10.444 3.381,10.823 4.046,11.112 C4.711,11.401 5.409,11.541 6.141,11.541 C7.115,11.541 8.022,11.299 8.849,10.817 C9.681,10.331 10.341,9.676 10.824,8.849 C11.309,8.017 11.549,7.109 11.549,6.136 C11.549,5.162 11.307,4.262 10.823,3.436 ZM7.895,8.500 L5.886,6.491 C5.806,6.411 5.772,6.310 5.785,6.189 C5.785,6.169 5.772,6.142 5.772,6.136 L5.772,2.603 C5.772,2.395 5.947,2.227 6.141,2.227 C6.350,2.227 6.531,2.395 6.531,2.603 L6.531,6.082 L8.412,7.976 C8.556,8.121 8.566,8.345 8.412,8.500 C8.278,8.634 8.029,8.634 7.895,8.500 Z" class="cls-1"/>
</svg>
