<svg xmlns="http://www.w3.org/2000/svg" xmlns:xlink="http://www.w3.org/1999/xlink" preserveAspectRatio="xMidYMid" width="12.281" height="9.219" viewBox="0 0 12.281 9.219">
  <defs>
    <style>
      .cls-1 {
        fill: #32bbe3;
        fill-rule: evenodd;
      }
    </style>
  </defs>
  <path d="M11.790,6.486 C11.466,6.942 11.020,7.327 10.453,7.642 C10.499,7.746 10.546,7.843 10.594,7.929 C10.642,8.017 10.699,8.101 10.765,8.182 C10.831,8.262 10.883,8.326 10.919,8.372 C10.956,8.417 11.015,8.482 11.098,8.565 C11.180,8.648 11.232,8.702 11.255,8.728 C11.260,8.733 11.269,8.743 11.283,8.758 C11.297,8.773 11.307,8.784 11.314,8.790 C11.320,8.797 11.330,8.808 11.341,8.823 C11.352,8.838 11.360,8.850 11.365,8.859 L11.382,8.892 C11.382,8.892 11.387,8.905 11.396,8.931 C11.405,8.957 11.406,8.971 11.399,8.973 C11.392,8.975 11.390,8.990 11.392,9.016 C11.379,9.077 11.349,9.125 11.303,9.160 C11.257,9.195 11.207,9.210 11.152,9.206 C10.924,9.175 10.727,9.140 10.563,9.101 C9.859,8.926 9.223,8.647 8.657,8.263 C8.246,8.333 7.843,8.368 7.450,8.368 C6.212,8.368 5.133,8.080 4.214,7.504 C4.479,7.521 4.681,7.530 4.818,7.530 C5.554,7.530 6.260,7.432 6.936,7.235 C7.612,7.039 8.216,6.757 8.746,6.391 C9.317,5.990 9.756,5.527 10.062,5.003 C10.369,4.480 10.522,3.925 10.522,3.341 C10.522,3.005 10.469,2.673 10.364,2.346 C10.953,2.656 11.420,3.044 11.762,3.511 C12.105,3.978 12.277,4.480 12.277,5.017 C12.277,5.540 12.115,6.030 11.790,6.486 ZM7.241,6.244 C6.499,6.543 5.691,6.692 4.818,6.692 C4.425,6.692 4.023,6.657 3.611,6.587 C3.045,6.971 2.409,7.251 1.706,7.425 C1.541,7.464 1.344,7.499 1.116,7.530 L1.095,7.530 C1.045,7.530 0.998,7.513 0.955,7.478 C0.911,7.443 0.885,7.397 0.876,7.340 C0.871,7.327 0.869,7.313 0.869,7.298 C0.869,7.282 0.870,7.268 0.873,7.255 C0.875,7.242 0.879,7.229 0.886,7.216 L0.903,7.183 C0.903,7.183 0.911,7.171 0.927,7.147 C0.943,7.123 0.952,7.113 0.955,7.115 C0.957,7.117 0.967,7.106 0.986,7.082 C1.004,7.058 1.013,7.048 1.013,7.052 C1.036,7.026 1.089,6.972 1.171,6.889 C1.253,6.806 1.313,6.742 1.349,6.696 C1.386,6.650 1.437,6.587 1.503,6.506 C1.570,6.425 1.627,6.341 1.675,6.254 C1.723,6.167 1.770,6.071 1.815,5.966 C1.249,5.652 0.803,5.265 0.479,4.808 C0.154,4.349 -0.009,3.860 -0.009,3.341 C-0.009,2.734 0.206,2.174 0.636,1.659 C1.066,1.144 1.652,0.737 2.394,0.438 C3.137,0.139 3.945,-0.010 4.818,-0.010 C5.691,-0.010 6.499,0.139 7.241,0.438 C7.984,0.737 8.570,1.144 9.000,1.659 C9.429,2.174 9.644,2.734 9.644,3.341 C9.644,3.948 9.429,4.508 9.000,5.023 C8.570,5.538 7.984,5.945 7.241,6.244 Z" class="cls-1"/>
</svg>
