<svg xmlns="http://www.w3.org/2000/svg" xmlns:xlink="http://www.w3.org/1999/xlink" preserveAspectRatio="xMidYMid" width="16.219" height="12.15" viewBox="0 0 16.219 12.15">
  <defs>
    <style>
      .cls-1 {
        fill: #fafafa;
        fill-rule: evenodd;
      }
    </style>
  </defs>
  <path d="M15.576,8.558 C15.148,9.159 14.560,9.667 13.811,10.082 C13.872,10.220 13.934,10.346 13.997,10.462 C14.060,10.577 14.136,10.688 14.223,10.794 C14.311,10.901 14.379,10.984 14.427,11.044 C14.475,11.105 14.553,11.189 14.662,11.299 C14.771,11.408 14.840,11.480 14.870,11.515 C14.876,11.520 14.888,11.533 14.906,11.553 C14.925,11.573 14.938,11.588 14.947,11.596 C14.956,11.605 14.968,11.620 14.983,11.639 C14.998,11.660 15.009,11.675 15.015,11.687 L15.037,11.730 C15.037,11.730 15.044,11.747 15.055,11.782 C15.067,11.816 15.069,11.835 15.060,11.838 C15.051,11.840 15.048,11.859 15.051,11.894 C15.033,11.974 14.994,12.038 14.933,12.083 C14.873,12.130 14.806,12.150 14.734,12.144 C14.432,12.104 14.173,12.058 13.956,12.006 C13.027,11.776 12.188,11.407 11.440,10.901 C10.897,10.993 10.366,11.039 9.847,11.039 C8.212,11.039 6.788,10.659 5.576,9.900 C5.926,9.923 6.191,9.934 6.372,9.934 C7.343,9.934 8.276,9.805 9.168,9.546 C10.061,9.287 10.858,8.916 11.558,8.433 C12.312,7.903 12.891,7.294 13.295,6.603 C13.700,5.913 13.902,5.182 13.902,4.411 C13.902,3.968 13.832,3.531 13.693,3.099 C14.472,3.508 15.087,4.020 15.540,4.635 C15.992,5.251 16.218,5.913 16.218,6.620 C16.218,7.311 16.004,7.957 15.576,8.558 ZM9.572,8.239 C8.591,8.633 7.525,8.830 6.372,8.829 C5.854,8.829 5.323,8.783 4.780,8.692 C4.032,9.198 3.193,9.566 2.264,9.796 C2.047,9.848 1.787,9.894 1.486,9.934 L1.458,9.934 C1.392,9.934 1.330,9.911 1.273,9.865 C1.216,9.819 1.181,9.759 1.169,9.684 C1.163,9.667 1.160,9.648 1.160,9.628 C1.160,9.608 1.161,9.589 1.164,9.572 C1.167,9.555 1.173,9.538 1.182,9.520 L1.205,9.477 C1.205,9.477 1.216,9.461 1.237,9.430 C1.258,9.398 1.270,9.384 1.273,9.387 C1.276,9.390 1.290,9.375 1.314,9.343 C1.338,9.312 1.350,9.299 1.350,9.305 C1.380,9.270 1.449,9.198 1.558,9.089 C1.667,8.980 1.745,8.895 1.793,8.835 C1.842,8.774 1.910,8.691 1.997,8.584 C2.085,8.478 2.160,8.367 2.223,8.252 C2.287,8.137 2.349,8.011 2.409,7.872 C1.661,7.458 1.072,6.949 0.644,6.345 C0.216,5.741 0.001,5.096 0.001,4.411 C0.001,3.611 0.285,2.872 0.852,2.193 C1.419,1.514 2.193,0.978 3.173,0.583 C4.154,0.190 5.220,-0.008 6.372,-0.008 C7.525,-0.008 8.591,0.190 9.571,0.583 C10.552,0.978 11.326,1.514 11.893,2.193 C12.460,2.872 12.743,3.611 12.743,4.411 C12.743,5.211 12.460,5.950 11.893,6.629 C11.326,7.308 10.552,7.845 9.572,8.239 Z" class="cls-1"/>
</svg>
