<svg xmlns="http://www.w3.org/2000/svg" xmlns:xlink="http://www.w3.org/1999/xlink" preserveAspectRatio="xMidYMid" width="16.41" height="9.19" viewBox="0 0 16.41 9.19">
  <defs>
    <style>
      .cls-1 {
        fill: #8d8d8d;
        fill-rule: evenodd;
      }
    </style>
  </defs>
  <path d="M8.212,-0.003 C2.838,-0.003 0.021,3.971 0.021,4.601 C0.021,5.231 2.838,9.204 8.212,9.204 C13.585,9.204 16.403,5.231 16.403,4.601 C16.403,3.971 13.585,-0.003 8.212,-0.003 ZM8.212,8.142 C6.201,8.142 4.571,6.557 4.571,4.601 C4.571,2.645 6.201,1.059 8.212,1.059 C10.222,1.059 11.852,2.645 11.852,4.601 C11.852,6.557 10.222,8.142 8.212,8.142 ZM8.212,4.601 C7.878,4.233 8.755,2.830 8.212,2.830 C7.206,2.830 6.391,3.623 6.391,4.601 C6.391,5.579 7.206,6.371 8.212,6.371 C9.216,6.371 10.032,5.579 10.032,4.601 C10.032,4.151 8.495,4.913 8.212,4.601 Z" class="cls-1"/>
</svg>
