<svg xmlns="http://www.w3.org/2000/svg" xmlns:xlink="http://www.w3.org/1999/xlink" preserveAspectRatio="xMidYMid" width="12.156" height="12.15" viewBox="0 0 12.156 12.15">
  <defs>
    <style>
      .cls-1 {
        fill: #fafafa;
        fill-rule: evenodd;
      }
    </style>
  </defs>
  <path d="M11.668,8.440 C11.027,9.934 9.937,11.028 8.430,11.671 C7.676,11.992 6.887,12.156 6.062,12.156 C5.238,12.156 4.454,11.993 3.702,11.671 C2.207,11.029 1.112,9.937 0.470,8.440 C0.148,7.689 -0.009,6.897 -0.009,6.073 C-0.009,5.249 0.148,4.463 0.470,3.713 C1.112,2.216 2.206,1.130 3.702,0.489 C4.454,0.166 5.238,0.003 6.062,0.003 C6.887,0.003 7.676,0.168 8.430,0.489 C9.937,1.132 11.027,2.218 11.668,3.713 C11.991,4.466 12.154,5.249 12.154,6.073 C12.154,6.897 11.991,7.687 11.668,8.440 ZM10.697,3.400 C10.219,2.583 9.566,1.933 8.742,1.453 C7.924,0.975 7.027,0.735 6.062,0.735 C5.098,0.735 4.207,0.974 3.389,1.453 C2.571,1.931 1.917,2.581 1.441,3.400 C0.966,4.217 0.729,5.109 0.729,6.073 C0.729,6.798 0.866,7.497 1.148,8.154 C1.431,8.813 1.810,9.387 2.285,9.862 C2.761,10.338 3.329,10.713 3.988,10.999 C4.646,11.285 5.338,11.424 6.062,11.424 C7.027,11.424 7.924,11.184 8.742,10.707 C9.566,10.227 10.220,9.577 10.697,8.759 C11.178,7.935 11.415,7.037 11.415,6.073 C11.415,5.109 11.176,4.218 10.697,3.400 ZM7.798,8.413 L5.810,6.425 C5.730,6.346 5.697,6.246 5.710,6.126 C5.710,6.106 5.697,6.080 5.697,6.073 L5.697,2.576 C5.697,2.370 5.869,2.204 6.062,2.204 C6.268,2.204 6.448,2.370 6.448,2.576 L6.448,6.020 L8.310,7.895 C8.453,8.039 8.463,8.260 8.310,8.413 C8.177,8.546 7.931,8.546 7.798,8.413 Z" class="cls-1"/>
</svg>
