<svg xmlns="http://www.w3.org/2000/svg" xmlns:xlink="http://www.w3.org/1999/xlink" preserveAspectRatio="xMidYMid" width="10.969" height="12.19" viewBox="0 0 10.969 12.19">
  <defs>
    <style>
      .cls-1 {
        fill: #fafafa;
        fill-rule: evenodd;
      }
    </style>
  </defs>
  <path d="M10.391,11.649 C10.012,12.017 9.509,12.201 8.882,12.201 L2.081,12.201 C1.454,12.201 0.951,12.017 0.572,11.649 C0.193,11.281 0.004,10.780 0.004,10.144 C0.004,9.864 0.013,9.590 0.031,9.322 C0.049,9.055 0.086,8.766 0.140,8.457 C0.195,8.147 0.263,7.860 0.346,7.595 C0.429,7.330 0.541,7.072 0.681,6.821 C0.821,6.569 0.982,6.355 1.163,6.177 C1.345,6.000 1.567,5.859 1.828,5.753 C2.090,5.647 2.380,5.594 2.696,5.594 C2.743,5.594 2.852,5.651 3.023,5.764 C3.194,5.879 3.387,6.005 3.602,6.146 C3.818,6.286 4.098,6.413 4.443,6.527 C4.788,6.641 5.134,6.698 5.481,6.698 C5.829,6.698 6.175,6.641 6.520,6.527 C6.865,6.413 7.145,6.286 7.360,6.146 C7.575,6.005 7.769,5.879 7.940,5.764 C8.111,5.651 8.220,5.594 8.267,5.594 C8.583,5.594 8.872,5.647 9.134,5.753 C9.396,5.859 9.618,6.000 9.799,6.177 C9.981,6.355 10.142,6.569 10.282,6.821 C10.422,7.072 10.533,7.330 10.616,7.595 C10.699,7.860 10.768,8.147 10.823,8.457 C10.877,8.766 10.913,9.055 10.932,9.322 C10.950,9.590 10.959,9.864 10.959,10.144 C10.959,10.780 10.770,11.281 10.391,11.649 ZM5.482,6.102 C4.657,6.102 3.953,5.804 3.369,5.209 C2.786,4.613 2.494,3.894 2.494,3.052 C2.494,2.211 2.786,1.492 3.369,0.896 C3.953,0.301 4.657,0.003 5.482,0.003 C6.306,0.003 7.010,0.301 7.594,0.896 C8.178,1.492 8.469,2.211 8.469,3.052 C8.469,3.894 8.178,4.613 7.594,5.209 C7.010,5.804 6.306,6.102 5.482,6.102 Z" class="cls-1"/>
</svg>
