<svg xmlns="http://www.w3.org/2000/svg" xmlns:xlink="http://www.w3.org/1999/xlink" preserveAspectRatio="xMidYMid" width="19" height="19" viewBox="0 0 19 19">
  <defs>
    <style>
      .cls-1 {
        fill: #5c688b;
        fill-rule: evenodd;
      }
    </style>
  </defs>
  <path d="M13.756,19.000 L5.243,19.000 C2.352,19.000 -0.000,16.647 -0.000,13.756 L-0.000,5.243 C-0.000,2.352 2.352,-0.000 5.243,-0.000 L13.756,-0.000 C16.648,-0.000 19.000,2.352 19.000,5.243 L19.000,13.756 C19.000,16.647 16.648,19.000 13.756,19.000 ZM17.314,13.756 L17.314,5.243 C17.314,3.282 15.718,1.685 13.756,1.685 L5.243,1.685 C3.282,1.685 1.686,3.282 1.686,5.243 L1.686,13.756 C1.686,15.718 3.282,17.314 5.243,17.314 L13.757,17.314 C15.718,17.314 17.314,15.718 17.314,13.756 L17.314,13.756 ZM14.601,5.647 C14.276,5.647 13.957,5.515 13.728,5.285 C13.497,5.055 13.365,4.736 13.365,4.411 C13.365,4.085 13.497,3.766 13.728,3.537 C13.957,3.306 14.276,3.175 14.601,3.175 C14.927,3.175 15.246,3.306 15.475,3.537 C15.706,3.766 15.837,4.085 15.837,4.411 C15.837,4.736 15.706,5.055 15.475,5.285 C15.245,5.515 14.927,5.647 14.601,5.647 ZM9.500,14.396 C6.800,14.396 4.604,12.199 4.604,9.500 C4.604,6.800 6.800,4.604 9.500,4.604 C12.200,4.604 14.396,6.800 14.396,9.500 C14.396,12.199 12.200,14.396 9.500,14.396 ZM9.500,6.290 C7.730,6.290 6.290,7.730 6.290,9.500 C6.290,11.270 7.730,12.710 9.500,12.710 C11.270,12.710 12.710,11.270 12.710,9.500 C12.710,7.730 11.270,6.290 9.500,6.290 Z" class="cls-1"/>
</svg>
