<svg xmlns="http://www.w3.org/2000/svg" xmlns:xlink="http://www.w3.org/1999/xlink" preserveAspectRatio="xMidYMid" width="13.25" height="12.31" viewBox="0 0 13.25 12.31">
  <defs>
    <style>
      .cls-1 {
        fill: #e35057;
        fill-rule: evenodd;
      }
    </style>
  </defs>
  <path d="M13.240,3.670 C13.046,1.541 11.537,-0.004 9.648,-0.004 C8.389,-0.004 7.237,0.672 6.589,1.756 C5.946,0.658 4.841,-0.005 3.603,-0.005 C1.715,-0.005 0.205,1.540 0.011,3.670 C-0.004,3.764 -0.067,4.259 0.124,5.066 C0.399,6.231 1.035,7.290 1.962,8.129 L6.586,12.319 L11.289,8.129 C12.216,7.290 12.851,6.231 13.127,5.066 C13.318,4.259 13.255,3.764 13.240,3.670 ZM4.073,2.055 C2.947,2.055 2.031,2.970 2.031,4.094 C2.031,4.235 1.917,4.349 1.776,4.349 C1.635,4.349 1.521,4.235 1.521,4.094 C1.521,2.688 2.666,1.545 4.073,1.545 C4.214,1.545 4.328,1.659 4.328,1.800 C4.328,1.941 4.214,2.055 4.073,2.055 Z" class="cls-1"/>
</svg>
