<svg xmlns="http://www.w3.org/2000/svg" xmlns:xlink="http://www.w3.org/1999/xlink" preserveAspectRatio="xMidYMid" width="17.876" height="16.88" viewBox="0 0 17.876 16.88">
  <defs>
    <style>
      .cls-1 {
        fill: #32bbe3;
        fill-rule: evenodd;
      }
    </style>
  </defs>
  <path d="M17.767,10.301 L13.841,16.685 C13.668,16.963 13.427,16.945 13.302,16.643 L12.507,14.715 C12.383,14.411 12.015,14.213 11.691,14.273 C11.691,14.273 10.928,14.366 10.209,14.411 C5.926,14.677 4.071,11.343 4.071,11.343 C3.832,11.115 3.900,11.003 4.216,11.095 C4.216,11.095 5.648,11.510 6.773,11.510 C8.257,11.510 10.219,10.740 10.219,10.740 C10.528,10.620 10.678,10.274 10.553,9.973 L9.703,7.911 C9.579,7.610 9.737,7.436 10.054,7.525 L17.500,9.631 C17.819,9.720 17.938,10.022 17.767,10.301 ZM13.661,5.796 C13.661,5.796 12.228,5.380 11.104,5.380 C9.621,5.380 7.657,6.151 7.657,6.151 C7.349,6.273 7.200,6.618 7.324,6.919 L8.174,8.979 C8.299,9.282 8.139,9.455 7.821,9.366 L0.377,7.261 C0.056,7.172 -0.062,6.869 0.109,6.590 L4.036,0.205 C4.206,-0.072 4.449,-0.053 4.574,0.250 L5.369,2.179 C5.494,2.481 5.862,2.679 6.188,2.619 C6.188,2.619 6.948,2.524 7.668,2.481 C11.951,2.214 13.806,5.548 13.806,5.548 C14.044,5.777 13.976,5.887 13.661,5.796 Z" class="cls-1"/>
</svg>
