<svg xmlns="http://www.w3.org/2000/svg" xmlns:xlink="http://www.w3.org/1999/xlink" preserveAspectRatio="xMidYMid" width="15" height="17.969" viewBox="0 0 15 17.969">
  <defs>
    <style>
      .cls-1 {
        fill: #5c688b;
        fill-rule: evenodd;
      }
    </style>
  </defs>
  <path d="M13.055,1.844 C11.741,0.655 9.923,-0.000 7.936,-0.000 C4.900,-0.000 3.033,1.173 2.001,2.158 C0.729,3.371 -0.000,4.983 -0.000,6.578 C-0.000,8.582 0.889,10.120 2.377,10.692 C2.477,10.731 2.577,10.750 2.676,10.750 C2.990,10.750 3.238,10.556 3.324,10.246 C3.375,10.067 3.491,9.628 3.542,9.436 C3.650,9.060 3.562,8.878 3.326,8.616 C2.896,8.135 2.695,7.567 2.695,6.828 C2.695,4.633 4.429,2.299 7.641,2.299 C10.190,2.299 11.774,3.666 11.774,5.865 C11.774,7.253 11.457,8.539 10.881,9.485 C10.481,10.142 9.777,10.926 8.697,10.926 C8.230,10.926 7.811,10.745 7.546,10.430 C7.296,10.132 7.214,9.746 7.314,9.345 C7.428,8.891 7.583,8.418 7.733,7.961 C8.006,7.125 8.265,6.336 8.265,5.706 C8.265,4.629 7.563,3.906 6.518,3.906 C5.190,3.906 4.150,5.177 4.150,6.801 C4.150,7.597 4.375,8.193 4.476,8.421 C4.309,9.090 3.315,13.063 3.127,13.812 C3.018,14.250 2.361,17.704 3.448,17.980 C4.669,18.289 5.761,14.925 5.872,14.545 C5.962,14.236 6.277,13.066 6.470,12.347 C7.060,12.883 8.009,13.245 8.933,13.245 C10.674,13.245 12.240,12.506 13.342,11.164 C14.411,9.863 15.000,8.049 15.000,6.057 C15.000,4.499 14.291,2.964 13.055,1.844 Z" class="cls-1"/>
</svg>
