<svg xmlns="http://www.w3.org/2000/svg" xmlns:xlink="http://www.w3.org/1999/xlink" preserveAspectRatio="xMidYMid" width="27" height="6" viewBox="0 0 27 6">
  <defs>
    <style>
      .cls-1 {
        fill: #3bdcef;
        fill-rule: evenodd;
      }
    </style>
  </defs>
  <path d="M23.885,6.000 C22.164,6.000 20.769,4.657 20.769,3.000 C20.769,1.343 22.164,-0.000 23.885,-0.000 C25.605,-0.000 27.000,1.343 27.000,3.000 C27.000,4.657 25.605,6.000 23.885,6.000 ZM13.500,6.000 C11.779,6.000 10.385,4.657 10.385,3.000 C10.385,1.343 11.779,-0.000 13.500,-0.000 C15.221,-0.000 16.615,1.343 16.615,3.000 C16.615,4.657 15.221,6.000 13.500,6.000 ZM3.115,6.000 C1.395,6.000 -0.000,4.657 -0.000,3.000 C-0.000,1.343 1.395,-0.000 3.115,-0.000 C4.836,-0.000 6.231,1.343 6.231,3.000 C6.231,4.657 4.836,6.000 3.115,6.000 Z" class="cls-1"/>
</svg>
