<svg xmlns="http://www.w3.org/2000/svg" xmlns:xlink="http://www.w3.org/1999/xlink" preserveAspectRatio="xMidYMid" width="15" height="17" viewBox="0 0 15 17">
  <defs>
    <style>
      .cls-1 {
        fill: #fff;
        fill-rule: evenodd;
      }
    </style>
  </defs>
  <path d="M12.187,11.333 C11.543,11.333 10.952,11.554 10.477,11.921 L5.584,8.963 C5.609,8.812 5.625,8.658 5.625,8.500 C5.625,8.341 5.609,8.187 5.584,8.036 L10.477,5.078 C10.952,5.446 11.543,5.666 12.187,5.666 C13.741,5.666 15.000,4.397 15.000,2.833 C15.000,1.268 13.741,-0.000 12.187,-0.000 C10.634,-0.000 9.375,1.268 9.375,2.833 C9.375,2.991 9.391,3.145 9.416,3.297 L4.523,6.254 C4.049,5.887 3.457,5.666 2.812,5.666 C1.259,5.666 -0.000,6.935 -0.000,8.500 C-0.000,10.064 1.259,11.333 2.812,11.333 C3.457,11.333 4.049,11.112 4.523,10.745 L9.416,13.703 C9.391,13.854 9.375,14.008 9.375,14.166 C9.375,15.731 10.634,17.000 12.187,17.000 C13.741,17.000 15.000,15.731 15.000,14.166 C15.000,12.602 13.741,11.333 12.187,11.333 Z" class="cls-1"/>
</svg>
