<svg xmlns="http://www.w3.org/2000/svg" xmlns:xlink="http://www.w3.org/1999/xlink" preserveAspectRatio="xMidYMid" width="16" height="16" viewBox="0 0 16 16">
  <defs>
    <style>
      .cls-1 {
        fill: #5c688b;
        fill-rule: evenodd;
      }
    </style>
  </defs>
  <path d="M15.332,9.158 C15.392,8.780 15.423,8.394 15.423,7.999 C15.423,3.900 12.100,0.576 8.000,0.576 C7.606,0.576 7.219,0.609 6.841,0.668 C6.157,0.245 5.351,-0.000 4.486,-0.000 C2.008,-0.000 -0.000,2.008 -0.000,4.485 C-0.000,5.350 0.245,6.156 0.668,6.842 C0.609,7.220 0.577,7.605 0.577,8.000 C0.577,12.100 3.900,15.422 7.999,15.422 C8.393,15.422 8.781,15.392 9.158,15.332 C9.843,15.754 10.649,16.000 11.513,16.000 C13.992,16.000 16.000,13.991 16.000,11.514 C16.000,10.649 15.755,9.843 15.332,9.158 ZM11.524,11.376 C11.210,11.828 10.749,12.181 10.146,12.435 C9.542,12.690 8.828,12.816 8.004,12.816 C7.016,12.816 6.198,12.644 5.552,12.294 C5.094,12.044 4.722,11.709 4.436,11.291 C4.149,10.872 4.003,10.462 4.003,10.063 C4.003,9.827 4.093,9.622 4.268,9.455 C4.445,9.286 4.673,9.202 4.942,9.202 C5.162,9.202 5.351,9.268 5.505,9.400 C5.658,9.531 5.786,9.722 5.891,9.974 C6.017,10.266 6.153,10.510 6.298,10.705 C6.443,10.897 6.646,11.058 6.909,11.183 C7.169,11.310 7.516,11.372 7.949,11.372 C8.542,11.372 9.022,11.244 9.388,10.991 C9.757,10.736 9.934,10.425 9.934,10.050 C9.934,9.750 9.839,9.512 9.643,9.327 C9.445,9.139 9.190,8.996 8.874,8.896 C8.556,8.795 8.129,8.688 7.594,8.576 C6.876,8.419 6.275,8.236 5.789,8.027 C5.302,7.817 4.914,7.529 4.626,7.166 C4.338,6.799 4.194,6.343 4.194,5.803 C4.194,5.289 4.346,4.828 4.650,4.427 C4.953,4.026 5.392,3.718 5.965,3.504 C6.535,3.290 7.207,3.183 7.976,3.183 C8.591,3.183 9.124,3.254 9.574,3.395 C10.024,3.538 10.398,3.726 10.698,3.963 C10.995,4.198 11.214,4.447 11.353,4.708 C11.491,4.970 11.561,5.225 11.561,5.475 C11.561,5.707 11.471,5.917 11.296,6.101 C11.121,6.286 10.897,6.380 10.635,6.379 C10.399,6.379 10.214,6.325 10.086,6.210 C9.961,6.098 9.829,5.921 9.687,5.674 C9.508,5.329 9.293,5.060 9.043,4.868 C8.800,4.679 8.398,4.580 7.839,4.582 C7.322,4.582 6.909,4.687 6.596,4.894 C6.282,5.104 6.132,5.347 6.131,5.633 C6.132,5.811 6.183,5.962 6.287,6.091 C6.392,6.221 6.538,6.334 6.726,6.429 C6.914,6.526 7.105,6.600 7.297,6.654 C7.491,6.709 7.814,6.789 8.262,6.894 C8.824,7.015 9.334,7.151 9.792,7.298 C10.250,7.447 10.640,7.625 10.962,7.838 C11.287,8.051 11.541,8.321 11.723,8.649 C11.905,8.976 11.996,9.376 11.996,9.847 C11.997,10.414 11.839,10.924 11.524,11.376 Z" class="cls-1"/>
</svg>
