<svg xmlns="http://www.w3.org/2000/svg" xmlns:xlink="http://www.w3.org/1999/xlink" preserveAspectRatio="xMidYMid" width="15.469" height="15.563" viewBox="0 0 15.469 15.563">
  <defs>
    <style>
      .cls-1 {
        fill: #fff;
        fill-rule: evenodd;
      }
    </style>
  </defs>
  <path d="M0.010,0.011 L0.010,2.992 C6.893,2.992 12.496,8.629 12.496,15.556 L15.469,15.556 C15.469,6.987 8.533,0.011 0.010,0.011 ZM7.236,15.556 L10.213,15.556 C10.213,9.896 5.633,5.292 0.006,5.292 L0.006,8.272 C1.936,8.272 3.750,9.030 5.117,10.405 C6.482,11.776 7.236,13.608 7.236,15.556 ZM2.063,15.538 C3.202,15.538 4.124,14.616 4.124,13.475 C4.124,12.342 3.202,11.410 2.063,11.410 C0.927,11.410 0.004,12.340 0.004,13.475 C0.004,14.616 0.927,15.538 2.063,15.538 Z" class="cls-1"/>
</svg>
