<svg xmlns="http://www.w3.org/2000/svg" xmlns:xlink="http://www.w3.org/1999/xlink" preserveAspectRatio="xMidYMid" width="15.469" height="16.375" viewBox="0 0 15.469 16.375">
  <defs>
    <style>
      .cls-1 {
        fill: #fff;
        fill-rule: evenodd;
      }
    </style>
  </defs>
  <path d="M13.440,6.915 L13.440,4.844 L12.083,4.844 L12.083,6.915 L10.048,6.915 L10.048,8.297 L12.083,8.297 L12.083,10.368 L13.440,10.368 L13.440,8.297 L15.475,8.297 L15.475,6.915 L13.440,6.915 ZM8.217,9.263 L7.471,8.711 C7.200,8.504 6.928,8.227 6.928,7.744 C6.928,7.261 7.267,6.847 7.606,6.639 C8.488,5.949 9.370,5.189 9.370,3.670 C9.370,2.220 8.488,1.392 8.013,0.978 L9.167,0.978 L9.981,0.011 L5.775,0.011 C2.791,0.011 1.298,1.944 1.298,4.016 C1.298,5.604 2.519,7.329 4.690,7.329 L5.233,7.329 C5.165,7.537 4.961,7.882 4.961,8.227 C4.961,8.918 5.233,9.194 5.572,9.608 C4.622,9.677 2.858,9.884 1.570,10.713 C0.349,11.473 0.010,12.508 0.010,13.268 C0.010,14.856 1.434,16.375 4.486,16.375 C8.149,16.375 9.913,14.303 9.913,12.301 C9.913,10.851 9.167,10.092 8.217,9.263 ZM3.062,2.980 C3.062,1.461 3.944,0.770 4.893,0.770 C6.657,0.770 7.606,3.187 7.606,4.568 C7.606,6.363 6.182,6.708 5.639,6.708 C3.944,6.708 3.062,4.568 3.062,2.980 ZM5.504,15.408 C3.265,15.408 1.841,14.372 1.841,12.853 C1.841,11.334 3.198,10.851 3.605,10.644 C4.486,10.368 5.639,10.299 5.843,10.299 C6.046,10.299 6.182,10.299 6.318,10.299 C7.946,11.473 8.624,11.956 8.624,13.060 C8.624,14.372 7.335,15.408 5.504,15.408 Z" class="cls-1"/>
</svg>
