<svg xmlns="http://www.w3.org/2000/svg" xmlns:xlink="http://www.w3.org/1999/xlink" preserveAspectRatio="xMidYMid" width="11" height="16" viewBox="0 0 11 16">
  <defs>
    <style>
      .cls-1 {
        fill: #5c688b;
        fill-rule: evenodd;
      }
    </style>
  </defs>
  <path d="M10.852,12.228 C10.761,12.183 10.649,12.188 10.563,12.240 C9.764,12.719 8.955,12.963 8.160,12.963 C7.726,12.963 7.353,12.874 7.017,12.689 C6.790,12.567 6.639,12.411 6.557,12.211 C6.495,12.058 6.420,11.649 6.420,10.573 L6.420,6.860 L10.156,6.860 C10.312,6.860 10.439,6.745 10.439,6.602 L10.439,4.171 C10.439,4.029 10.312,3.913 10.156,3.913 L6.420,3.913 L6.420,0.258 C6.420,0.115 6.294,-0.000 6.138,-0.000 L3.728,-0.000 C3.585,-0.000 3.465,0.097 3.447,0.226 C3.344,0.991 3.154,1.627 2.882,2.115 C2.614,2.600 2.253,3.020 1.808,3.365 C1.366,3.710 0.823,3.979 0.196,4.165 C0.079,4.199 -0.000,4.298 -0.000,4.410 L-0.000,6.602 C-0.000,6.745 0.126,6.860 0.282,6.860 L1.873,6.860 L1.873,12.034 C1.873,12.781 1.959,13.343 2.136,13.748 C2.314,14.159 2.634,14.548 3.088,14.905 C3.535,15.256 4.080,15.530 4.707,15.718 C5.326,15.905 6.047,16.000 6.848,16.000 C7.549,16.000 8.211,15.934 8.816,15.805 C9.422,15.675 10.102,15.448 10.838,15.131 C10.937,15.088 11.000,14.997 11.000,14.898 L11.000,12.455 C11.000,12.360 10.943,12.273 10.852,12.228 Z" class="cls-1"/>
</svg>
