<svg xmlns="http://www.w3.org/2000/svg" xmlns:xlink="http://www.w3.org/1999/xlink" preserveAspectRatio="xMidYMid" width="24" height="18" viewBox="0 0 24 18">
  <defs>
    <style>
      .cls-1 {
        fill: #fff;
        fill-rule: evenodd;
      }
    </style>
  </defs>
  <path d="M23.996,8.180 C23.996,9.900 22.677,11.372 21.045,11.453 C20.655,10.717 20.034,10.063 19.336,9.652 C19.028,6.952 16.852,4.907 14.291,4.907 C13.593,4.907 12.895,5.074 12.274,5.399 C11.576,4.582 10.723,3.927 9.713,3.598 C10.334,2.451 11.499,1.634 12.818,1.634 C13.439,1.634 13.983,1.801 14.449,2.045 C15.148,0.817 16.390,-0.000 17.863,-0.000 C20.034,-0.000 21.743,1.801 21.743,4.090 C21.743,4.415 21.743,4.659 21.666,4.988 C23.062,5.314 24.073,6.623 23.996,8.180 ZM12.116,6.379 C12.818,5.968 13.516,5.724 14.368,5.724 C16.698,5.724 18.638,7.688 18.638,10.144 C20.034,10.799 20.968,12.189 20.960,13.909 C20.960,16.198 19.251,18.000 17.080,18.000 L3.885,18.000 C1.713,18.000 0.004,16.198 0.004,13.909 C0.004,12.189 0.938,10.799 2.334,10.144 C2.334,10.063 2.334,9.900 2.334,9.819 C2.334,6.627 4.741,4.090 7.769,4.090 C9.555,4.090 11.105,4.988 12.116,6.379 Z" class="cls-1"/>
</svg>
