<svg xmlns="http://www.w3.org/2000/svg" xmlns:xlink="http://www.w3.org/1999/xlink" preserveAspectRatio="xMidYMid" width="19" height="14" viewBox="0 0 19 14">
  <defs>
    <style>
      .cls-1 {
        fill: #5c688b;
        fill-rule: evenodd;
      }
    </style>
  </defs>
  <path d="M18.259,1.201 C17.574,0.348 16.307,-0.000 13.889,-0.000 L5.111,-0.000 C2.637,-0.000 1.349,0.370 0.666,1.279 C-0.000,2.165 -0.000,3.471 -0.000,5.278 L-0.000,8.722 C-0.000,12.222 0.790,14.000 5.111,14.000 L13.889,14.000 C15.986,14.000 17.148,13.693 17.900,12.939 C18.671,12.167 19.000,10.905 19.000,8.722 L19.000,5.278 C19.000,3.372 18.948,2.059 18.259,1.201 ZM12.198,7.475 L8.212,9.657 C8.123,9.705 8.025,9.729 7.928,9.729 C7.818,9.729 7.708,9.698 7.610,9.637 C7.427,9.520 7.315,9.312 7.315,9.088 L7.315,4.739 C7.315,4.515 7.427,4.307 7.610,4.191 C7.793,4.074 8.020,4.066 8.210,4.170 L12.197,6.337 C12.399,6.447 12.527,6.667 12.527,6.906 C12.527,7.145 12.401,7.365 12.198,7.475 Z" class="cls-1"/>
</svg>
